<?xml version="1.0" encoding="iso-8859-1"?>
<!-- Generator: Adobe Illustrator 19.0.0, SVG Export Plug-In . SVG Version: 6.00 Build 0)  -->
<svg version="1.1" fill="#ffffff" id="Capa_1" xmlns="http://www.w3.org/2000/svg" xmlns:xlink="http://www.w3.org/1999/xlink" x="0px" y="0px"
	 viewBox="0 0 476.685 476.685" style="enable-background:new 0 0 476.685 476.685;" xml:space="preserve">
<g>
	<g>
		<path d="M360,196.685v-40c0-4.418-3.582-8-8-8h-54.544l-62.64-23.496c-4.135-1.555-8.749,0.537-10.304,4.672
			c-0.34,0.903-0.513,1.859-0.512,2.824v64H104c-8.837,0-16,7.163-16,16v24c0,8.837,7.163,16,16,16h8v208c0,8.837,7.163,16,16,16
			h208c8.837,0,16-7.163,16-16v-208h8c8.837,0,16-7.163,16-16v-24C376,203.848,368.837,196.685,360,196.685z M272,164.685h72v32h-72
			V164.685z M240,144.229l18.296,6.864c-1.472,1.489-2.298,3.498-2.296,5.592v40h-16V144.229z M360,236.685h-8
			c-8.837,0-16,7.163-16,16v208H128v-208c0-8.837-7.163-16-16-16h-8v-24h256V236.685z"/>
	</g>
</g>
<g>
	<g>
		<path d="M199.998,92.686c-2.121,0-4.154,0.843-5.654,2.342l-14.448,14.456C135.475,68.181,75.679,47.554,15.24,52.685
			c-4.119,0.393-7.259,3.862-7.24,8v72c0,2.721,1.383,5.256,3.672,6.728c2.287,1.471,5.165,1.678,7.64,0.552l20.264-9.208
			c33.713-15.19,73.395-6.528,97.712,21.328l-14.944,14.944c-3.124,3.125-3.123,8.19,0.002,11.314
			c1.5,1.499,3.534,2.342,5.654,2.342h72c4.418,0,8-3.582,8-8v-72C207.999,96.266,204.417,92.685,199.998,92.686z M192,164.685
			h-44.688l6.344-6.344c2.801-2.792,3.141-7.212,0.8-10.4c-27.977-37.867-78.578-51.09-121.504-31.752L24,120.261V68.173
			c56.072-2.66,110.664,18.461,150.344,58.168c3.124,3.123,8.188,3.123,11.312,0l6.344-6.344V164.685z"/>
	</g>
</g>
<g>
	<g>
		<path d="M464,161.373l-20.688-20.688L456,127.997c6.246-6.248,6.246-16.376,0-22.624l-92.688-92.688
			c-6.248-6.246-16.376-6.246-22.624,0L328,25.373L307.312,4.685c-6.248-6.246-16.376-6.246-22.624,0L264,25.373
			c-6.246,6.248-6.246,16.376,0,22.624l156.688,156.688c6.248,6.246,16.376,6.246,22.624,0L464,183.997
			C470.246,177.749,470.246,167.621,464,161.373z M432,193.373L275.312,36.685L296,15.997l26.344,26.344l80,80l11.312-11.312
			l-74.344-74.344L352,23.997l92.688,92.688l-18.344,18.344c-3.123,3.124-3.123,8.188,0,11.312l26.344,26.344L432,193.373z"/>
	</g>
</g>
<g>
	<g>
		<path d="M232,260.685c-13.255,0-24,10.745-24,24v144c0,13.255,10.745,24,24,24s24-10.745,24-24v-144
			C256,271.43,245.255,260.685,232,260.685z M240,428.685c0,4.418-3.582,8-8,8s-8-3.582-8-8v-144c0-4.418,3.582-8,8-8s8,3.582,8,8
			V428.685z"/>
	</g>
</g>
<g>
	<g>
		<path d="M168,260.685c-13.255,0-24,10.745-24,24v144c0,13.255,10.745,24,24,24s24-10.745,24-24v-144
			C192,271.43,181.255,260.685,168,260.685z M176,428.685c0,4.418-3.582,8-8,8s-8-3.582-8-8v-144c0-4.418,3.582-8,8-8s8,3.582,8,8
			V428.685z"/>
	</g>
</g>
<g>
	<g>
		<path d="M296,260.685c-13.255,0-24,10.745-24,24v144c0,13.255,10.745,24,24,24s24-10.745,24-24v-144
			C320,271.43,309.255,260.685,296,260.685z M304,428.685c0,4.418-3.582,8-8,8s-8-3.582-8-8v-144c0-4.418,3.582-8,8-8s8,3.582,8,8
			V428.685z"/>
	</g>
</g>
<g>
</g>
<g>
</g>
<g>
</g>
<g>
</g>
<g>
</g>
<g>
</g>
<g>
</g>
<g>
</g>
<g>
</g>
<g>
</g>
<g>
</g>
<g>
</g>
<g>
</g>
<g>
</g>
<g>
</g>
</svg>
